<svg width="800px" height="800px" viewBox="0 0 24 24" fill="none" xmlns="http://www.w3.org/2000/svg">
<path d="M4 19V6.2C4 5.0799 4 4.51984 4.21799 4.09202C4.40973 3.71569 4.71569 3.40973 5.09202 3.21799C5.51984 3 6.0799 3 7.2 3H16.8C17.9201 3 18.4802 3 18.908 3.21799C19.2843 3.40973 19.5903 3.71569 19.782 4.09202C20 4.51984 20 5.0799 20 6.2V17" stroke="#2563eb" stroke-width="1.5" stroke-linecap="round"/>
<path d="M4 19L4.21799 19.908C4.40973 20.2843 4.71569 20.5903 5.09202 20.782C5.51984 21 6.0799 21 7.2 21H16.8C17.9201 21 18.4802 21 18.908 20.782C19.2843 20.5903 19.5903 20.2843 19.782 20.908L20 17" stroke="#2563eb" stroke-width="1.5" stroke-linecap="round"/>
<path d="M20 17V7C20 5.89543 19.1046 5 18 5H8C6.89543 5 6 5.89543 6 7V19C6 20.1046 6.89543 21 8 21H18C19.1046 21 20 20.1046 20 19" stroke="#2563eb" stroke-width="1.5"/>
<path d="M9 8H15" stroke="#2563eb" stroke-width="1.5" stroke-linecap="round"/>
<path d="M9 12H13" stroke="#2563eb" stroke-width="1.5" stroke-linecap="round"/>
</svg>